# xmcd
#
# Track frame offsets:
#	150
#	29574
#	51359
#	77452
#	124052
#	203374
#
# Disc length: 3057 seconds
#
# Revision: 1
# Processed by: cddbd v1.5.1PL0 Copyright (c) Steve Scherf et al.
# Submitted via: audiograbber 1.83.01
#
DISCID=450bef06
DTITLE=Climax Blues Band - 1973 - BBC - Marquee Club, London
DYEAR=1900
DGENRE=
TTITLE0=All The Time In The World
TTITLE1=I Am Constant
TTITLE2=Seventh Son
TTITLE3=Mesopopmania
TTITLE4=So Many Roads
TTITLE5=(Banana) Ripple - Shake Your Love
EXTD=
EXTT0=
EXTT1=
EXTT2=
EXTT3=
EXTT4=
EXTT5=
PLAYORDER=
